<svg width="24" height="24" viewBox="0 0 24 24" fill="none" xmlns="http://www.w3.org/2000/svg">
<path d="M13.25 17V21.75H10.75V17C10.75 16.862 10.862 16.75 11 16.75H13C13.138 16.75 13.25 16.862 13.25 17ZM17.75 10.133V21C17.75 21.414 17.414 21.75 17 21.75H14.75V17C14.75 16.035 13.965 15.25 13 15.25H11C10.035 15.25 9.25 16.035 9.25 17V21.75H7C6.586 21.75 6.25 21.414 6.25 21V10.133C6.25 9.17298 6.762 8.26998 7.584 7.77498L11.25 5.57598V3.00098C11.25 2.58698 11.586 2.25098 12 2.25098C12.414 2.25098 12.75 2.58698 12.75 3.00098V3.25098H14C14.414 3.25098 14.75 3.58698 14.75 4.00098C14.75 4.41498 14.414 4.75098 14 4.75098H12.75V5.57598L16.415 7.77398C17.238 8.26998 17.75 9.17298 17.75 10.133ZM13 11C13 10.448 12.552 9.99998 12 9.99998C11.448 9.99998 11 10.448 11 11C11 11.552 11.448 12 12 12C12.552 12 13 11.552 13 11ZM19.25 11.26V21C19.25 21.26 19.2 21.52 19.12 21.75H20C20.96 21.75 21.75 20.96 21.75 20V14C21.75 12.56 20.65 11.39 19.25 11.26ZM4.75 11.26C3.35 11.39 2.25 12.56 2.25 14V20C2.25 20.96 3.04 21.75 4 21.75H4.88C4.8 21.52 4.75 21.26 4.75 21V11.26Z" fill="#303132"/>
</svg>
