<svg width="24" height="24" viewBox="0 0 24 24" fill="none" xmlns="http://www.w3.org/2000/svg">
<path d="M21.8926 5.08858C21.6536 5.01834 16.7022 2.35964 16.5564 2.54977C16.4761 2.34899 11.4867 4.91385 11.2951 4.96102C11.1138 5.05185 10.9608 5.19052 10.8526 5.36204C10.7444 5.53355 10.6852 5.73137 10.6814 5.93411C10.6775 6.13685 10.7292 6.33679 10.8307 6.51229C10.9323 6.68779 11.0799 6.83218 11.2576 6.92983L16.0576 9.46483C16.2129 9.54609 16.3853 9.58946 16.5606 9.59142C16.7359 9.59337 16.9092 9.55385 17.0663 9.47608L21.8926 7.06108C22.0732 6.9673 22.2246 6.82574 22.3302 6.65182C22.4359 6.47791 22.4917 6.27832 22.4917 6.07483C22.4917 5.87134 22.4359 5.67175 22.3302 5.49784C22.2246 5.32392 22.0732 5.18236 21.8926 5.08858Z" fill="#EAF1F6"/>
<path d="M4.77368 11.7524H7.04243V14.0212H4.77368V11.7524Z" fill="#EAF1F6"/>
<path d="M4.77368 17.1597H7.04243V19.4284H4.77368V17.1597Z" fill="#EAF1F6"/>
<path d="M16.5262 13.5822C14.1908 13.603 11.3313 11.6507 11.3025 10.001L1.5 10.001V19.3647C1.50136 19.9173 1.72147 20.4468 2.11219 20.8375C2.50291 21.2283 3.03244 21.4484 3.585 21.4497H18.6375C19.1903 21.449 19.7202 21.2291 20.111 20.8382C20.5019 20.4474 20.7218 19.9175 20.7225 19.3647V11.8572C19.535 12.8955 17.9753 13.6075 16.5262 13.5822ZM9.22875 11.5572H10.845C10.9433 11.559 11.037 11.5993 11.1059 11.6694C11.1747 11.7395 11.2133 11.8339 11.2133 11.9322C11.2133 12.0305 11.1747 12.1249 11.1058 12.1951C11.0369 12.2652 10.9433 12.3055 10.845 12.3072H9.22875C9.13026 12.3058 9.03629 12.2656 8.96716 12.1954C8.89803 12.1253 8.85927 12.0307 8.85927 11.9322C8.85927 11.8337 8.89803 11.7392 8.96716 11.669C9.03629 11.5988 9.13026 11.5587 9.22875 11.5572ZM9.22875 13.466H13.6725C13.7709 13.4675 13.8649 13.5077 13.9339 13.5778C14.003 13.648 14.0417 13.7425 14.0417 13.841C14.0417 13.9394 14.003 14.034 13.9339 14.1041C13.8649 14.1743 13.7709 14.2145 13.6725 14.216H9.22875C9.1303 14.2145 9.0364 14.1743 8.96732 14.1041C8.89823 14.034 8.85951 13.9394 8.85951 13.841C8.85951 13.7425 8.89823 13.648 8.96732 13.5778C9.0364 13.5077 9.1303 13.4675 9.22875 13.466ZM9.22875 16.9647H15.51C15.6084 16.9663 15.7024 17.0064 15.7714 17.0766C15.8405 17.1468 15.8792 17.2413 15.8792 17.3397C15.8792 17.4382 15.8405 17.5327 15.7714 17.6029C15.7023 17.673 15.6084 17.7132 15.51 17.7147H9.22875C9.1303 17.7132 9.0364 17.673 8.96732 17.6029C8.89823 17.5327 8.85951 17.4382 8.85951 17.3397C8.85951 17.2413 8.89823 17.1468 8.96732 17.0766C9.0364 17.0064 9.1303 16.9663 9.22875 16.9647ZM9.22875 18.8735H13.245C13.3433 18.8752 13.437 18.9155 13.5059 18.9857C13.5747 19.0558 13.6133 19.1502 13.6133 19.2485C13.6133 19.3468 13.5747 19.4412 13.5058 19.5113C13.4369 19.5814 13.3433 19.6217 13.245 19.6235H9.22875C9.13026 19.622 9.03629 19.5819 8.96716 19.5117C8.89803 19.4415 8.85927 19.347 8.85927 19.2485C8.85927 19.15 8.89803 19.0554 8.96716 18.9853C9.03629 18.9151 9.13026 18.8749 9.22875 18.8735ZM4.02375 11.7522C4.02433 11.5535 4.10354 11.3631 4.24407 11.2225C4.38459 11.082 4.57502 11.0028 4.77375 11.0022H7.0425C7.24123 11.0028 7.43166 11.082 7.57218 11.2225C7.71271 11.3631 7.79192 11.5535 7.7925 11.7522V14.021C7.79192 14.2197 7.71271 14.4101 7.57218 14.5507C7.43166 14.6912 7.24123 14.7704 7.0425 14.771H4.77375C4.57502 14.7704 4.38459 14.6912 4.24407 14.5507C4.10354 14.4101 4.02433 14.2197 4.02375 14.021V11.7522ZM4.02375 17.1597C4.02433 16.961 4.10353 16.7706 4.24406 16.63C4.38459 16.4895 4.57502 16.4103 4.77375 16.4097H7.0425C7.24123 16.4103 7.43166 16.4895 7.57219 16.63C7.71272 16.7706 7.79192 16.961 7.7925 17.1597V19.4285C7.79191 19.6272 7.71271 19.8176 7.57218 19.9582C7.43166 20.0987 7.24123 20.1779 7.0425 20.1785H4.77375C4.57502 20.1779 4.38459 20.0987 4.24407 19.9582C4.10354 19.8176 4.02433 19.6272 4.02375 19.4285V17.1597Z" fill="#EAF1F6"/>
<path d="M11.295 9.25104V7.79604C10.498 7.46244 9.89166 6.81729 9.92254 5.92101C9.9224 5.86333 9.92614 5.80571 9.93375 5.74854H3.585C3.03244 5.7499 2.50291 5.97001 2.11219 6.36072C1.72147 6.75144 1.50136 7.28098 1.5 7.83353V9.25104H11.295ZM9.12375 7.87479H3.3C3.20155 7.87326 3.10765 7.83308 3.03857 7.76292C2.96948 7.69276 2.93076 7.59825 2.93076 7.49979C2.93076 7.40132 2.96948 7.30681 3.03857 7.23665C3.10765 7.16649 3.20155 7.12631 3.3 7.12479H9.12375C9.2222 7.12631 9.3161 7.16649 9.38518 7.23665C9.45426 7.30681 9.49298 7.40132 9.49298 7.49979C9.49298 7.59825 9.45426 7.69276 9.38518 7.76292C9.3161 7.83308 9.2222 7.87326 9.12375 7.87479Z" fill="#EAF1F6"/>
<path d="M19.6237 9.03336C16.1442 10.7629 16.9866 10.8041 13.545 8.98456C13.1721 8.78946 12.4167 8.39143 12.045 8.19336V9.87711C11.9936 11.1249 14.5339 12.8244 16.4062 12.8284C17.8836 12.8678 19.2847 12.2154 20.6625 10.9009C20.8076 10.7632 20.9233 10.5975 21.0026 10.4138C21.0819 10.2301 21.1231 10.0322 21.1237 9.83211V8.28336C20.7482 8.47084 19.9986 8.84607 19.6237 9.03336Z" fill="#EAF1F6"/>
</svg>
