<svg width="24" height="24" viewBox="0 0 24 24" fill="none" xmlns="http://www.w3.org/2000/svg">
<path d="M6.01093 0.299316C4.15772 0.299316 2.62769 1.8279 2.62769 3.6811V18.0269C2.62769 19.8801 4.15773 21.4101 6.01093 21.4101H7.04234V22.5354C7.04326 23.3589 7.89794 23.9027 8.64447 23.5551L12.016 21.9911L15.3934 23.5551C16.1399 23.9027 16.9946 23.3589 16.9955 22.5354V21.4101H18.0269C19.8801 21.4101 21.4101 19.8801 21.4101 18.0269V3.6811C21.4101 1.8279 19.8801 0.299316 18.0269 0.299316H6.01093ZM8.65181 4.3868H15.3919C16.0133 4.38742 16.5166 4.89065 16.5172 5.5121C16.5197 6.13571 16.0155 6.64268 15.3919 6.64328H8.65181C8.02603 6.64575 7.51815 6.13787 7.52063 5.5121C7.52123 4.88849 8.0282 4.38436 8.65181 4.3868ZM12.016 10.4139C13.5718 10.4139 14.8109 11.6529 14.8109 13.2088C14.8109 14.7646 13.5718 15.9978 12.016 15.9978C10.4601 15.9978 9.22692 14.7646 9.22693 13.2088C9.22693 11.6529 10.4601 10.4139 12.016 10.4139ZM14.7449 17.443V20.7719L12.4928 19.7288C12.1921 19.5894 11.8457 19.5894 11.545 19.7288L9.29295 20.7719V17.4444C10.0805 17.9538 11.0142 18.2543 12.016 18.2543C13.0193 18.2543 13.9557 17.9538 14.7449 17.443Z" fill="#EAF1F6"/>
</svg>
