<svg width="24" height="24" viewBox="0 0 24 24" fill="none" xmlns="http://www.w3.org/2000/svg">
<g clip-path="url(#clip0_474_9781)">
<path d="M14.8359 12.7031C15.2243 12.7031 15.5391 12.3883 15.5391 12C15.5391 11.6117 15.2243 11.2969 14.8359 11.2969C14.4476 11.2969 14.1328 11.6117 14.1328 12C14.1328 12.3883 14.4476 12.7031 14.8359 12.7031Z" fill="#303132"/>
<path d="M9.21094 16.9219C9.59926 16.9219 9.91406 16.6071 9.91406 16.2188C9.91406 15.8304 9.59926 15.5156 9.21094 15.5156C8.82261 15.5156 8.50781 15.8304 8.50781 16.2188C8.50781 16.6071 8.82261 16.9219 9.21094 16.9219Z" fill="#303132"/>
<path d="M9.21094 8.48438C9.59926 8.48438 9.91406 8.16958 9.91406 7.78125C9.91406 7.39292 9.59926 7.07812 9.21094 7.07812C8.82261 7.07812 8.50781 7.39292 8.50781 7.78125C8.50781 8.16958 8.82261 8.48438 9.21094 8.48438Z" fill="#303132"/>
<path d="M22.3204 9.76566C22.0539 8.53589 21.5644 7.35347 20.8853 6.29742L21.9084 4.98112L19.0423 2.11505L17.726 3.13814C16.67 2.45906 15.4875 1.96945 14.2578 1.70306L14.0504 0H9.99647L9.78909 1.70306C8.55933 1.9695 7.37691 2.45906 6.32086 3.13814L5.00456 2.11505L2.13848 4.98112L3.16158 6.29742C2.4825 7.35347 1.99289 8.53589 1.7265 9.76566L0.0234375 9.97303V14.027L1.7265 14.2343C1.99294 15.4641 2.4825 16.6465 3.16158 17.7026L2.13848 19.0189L5.00456 21.885L6.32086 20.8619C7.37691 21.5409 8.55933 22.0305 9.78909 22.2969L9.99647 24H14.0504L14.2578 22.2969C15.4875 22.0305 16.67 21.5409 17.726 20.8619L19.0423 21.885L21.9084 19.0189L20.8853 17.7026C21.5644 16.6465 22.054 15.4641 22.3204 14.2343L23.9766 14.027V9.97303L22.3204 9.76566ZM18.3516 16.9219H11.1908C10.8996 17.7385 10.1264 18.3281 9.21094 18.3281C8.29547 18.3281 7.52231 17.7385 7.23108 16.9219H5.69531V15.5156H7.23108C7.52231 14.699 8.29547 14.1094 9.21094 14.1094C10.1264 14.1094 10.8996 14.699 11.1908 15.5156H18.3516V16.9219ZM18.3516 12.7031H16.8158C16.5246 13.5198 15.7514 14.1094 14.8359 14.1094C13.9205 14.1094 13.1473 13.5198 12.8561 12.7031H5.69531V11.2969H12.8561C13.1473 10.4802 13.9205 9.89062 14.8359 9.89062C15.7514 9.89062 16.5246 10.4802 16.8158 11.2969H18.3516V12.7031ZM18.3516 8.48438H11.1908C10.8996 9.30103 10.1264 9.89062 9.21094 9.89062C8.29547 9.89062 7.52231 9.30103 7.23108 8.48438H5.69531V7.07812H7.23108C7.52231 6.26147 8.29547 5.67188 9.21094 5.67188C10.1264 5.67188 10.8996 6.26147 11.1908 7.07812H18.3516V8.48438Z" fill="#303132"/>
</g>
<defs>
<clipPath id="clip0_474_9781">
<rect width="24" height="24" fill="white"/>
</clipPath>
</defs>
</svg>
